# Blender v3.2.2 OBJ File: 'Env_1c.blend'
# www.blender.org
o Rock1_Cube.002
v -0.681959 -0.034820 4.515164
v -0.454475 1.703142 2.766511
v -0.121371 -0.287981 -5.237120
v -0.056944 0.587561 -3.121161
v 0.103254 0.040465 4.657497
v 0.392787 1.562526 2.930884
v 1.111654 -0.352402 -4.764944
v 0.702687 0.598220 -3.136646
v -1.486646 -0.331813 -3.680313
v -2.365150 -0.242700 -0.859043
v -2.848157 0.000975 1.173630
v -1.611540 -0.079000 3.442868
v -0.669156 1.802959 2.137983
v -1.756177 1.493101 0.597044
v -1.704223 1.511004 -0.612211
v -0.794060 0.960617 -2.173449
v 2.975965 -0.321388 3.604179
v 3.305807 -0.126388 0.294644
v 2.283705 -0.274124 -1.122219
v 1.750724 -0.388489 -3.000397
v 1.349264 0.733066 -1.947335
v 1.640896 1.087645 -0.926016
v 2.104976 1.287477 0.051126
v 1.885611 1.460891 1.899085
v -0.337113 0.818930 4.261909
v 0.069206 0.269508 -4.478468
v 1.154528 0.238190 -4.366356
v 0.409327 0.912539 4.348678
v 1.765461 0.092018 -2.731086
v 2.137428 0.347878 -1.082281
v 2.878075 0.584419 0.189471
v 2.616398 0.691576 2.501325
v -1.672225 0.635040 2.817955
v -2.428419 0.873547 1.207697
v -2.457427 0.760875 -0.911861
v -1.330899 0.349839 -3.226214
v -0.435906 1.216256 -1.245239
v -0.005629 1.096692 -1.709608
v 0.438274 0.982971 -1.773405
v 1.036369 1.499354 0.871216
v 0.390368 1.686683 1.507215
v -0.142866 1.825864 1.353909
v -0.360634 1.766795 0.940771
v -0.610349 1.787060 0.256538
v -0.776695 1.698405 -0.395853
v 0.895146 1.269216 -1.204929
v 1.040455 1.471081 -0.765181
v 1.077691 1.448227 -0.037162
v -1.514293 -0.987825 3.221836
v -0.527070 -0.902882 4.497957
v 1.469750 -0.980428 -4.680787
v -0.203657 -1.022900 -5.023063
v 2.010875 -0.929123 -2.848930
v 0.189021 -0.830073 4.614417
v -1.553969 -1.071492 -3.437253
v -2.494087 -0.916895 -0.888150
v -2.353940 -0.906107 1.350091
v 2.840213 -0.856234 3.004721
v 2.852979 -0.927603 0.334851
v 2.342817 -0.929717 -0.916089
v -0.823778 -1.546600 2.126798
v -0.159232 -1.411700 2.964314
v 0.561022 -1.454098 -3.000558
v -0.376777 -1.445448 -3.427129
v 1.242440 -1.430347 -1.917610
v 0.595399 -1.542924 3.308186
v -1.084684 -1.508122 -2.310295
v -1.661282 -1.510502 -0.626768
v -1.467136 -1.505167 0.895731
v 1.809154 -1.590618 1.985941
v 1.948563 -1.475833 0.271804
v 1.909252 -1.431903 -0.809366
vt 0.600247 0.531410
vt 0.531521 0.532038
vt 0.561749 0.480192
vt 0.607527 0.454254
vt 0.550279 0.448055
vt 0.595047 0.423977
vt 0.263034 0.508156
vt 0.307371 0.519309
vt 0.304949 0.586554
vt 0.256676 0.607543
vt 0.324446 0.611580
vt 0.266695 0.632184
vt 0.615933 0.416974
vt 0.553241 0.361660
vt 0.564722 0.315737
vt 0.627423 0.397557
vt 0.362715 0.459021
vt 0.394602 0.497650
vt 0.361092 0.522348
vt 0.350081 0.609132
vt 0.368159 0.577098
vt 0.387650 0.576772
vt 0.418970 0.445519
vt 0.426171 0.483386
vt 0.481970 0.533914
vt 0.494072 0.505498
vt 0.474654 0.599235
vt 0.447363 0.566633
vt 0.243587 0.661505
vt 0.291913 0.707618
vt 0.263752 0.763555
vt 0.206167 0.683088
vt 0.227633 0.632390
vt 0.186472 0.646800
vt 0.204464 0.520759
vt 0.173665 0.491762
vt 0.555629 0.685766
vt 0.645544 0.526088
vt 0.698734 0.544085
vt 0.590522 0.729422
vt 0.481526 0.430981
vt 0.527902 0.383726
vt 0.413181 0.384445
vt 0.324814 0.418847
vt 0.332785 0.678182
vt 0.427725 0.625706
vt 0.417516 0.676037
vt 0.513567 0.637333
vt 0.431566 0.729013
vt 0.287186 0.384578
vt 0.407921 0.330985
vt 0.631960 0.446856
vt 0.352757 0.560000
vt 0.489282 0.483075
vt 0.449888 0.477121
vt 0.418351 0.572898
vt 0.419681 0.804789
vt 0.463378 0.947312
vt 0.223792 0.947934
vt 0.074010 0.802934
vt 0.376344 0.267867
vt 0.250085 0.324987
vt 0.192880 0.210662
vt 0.360364 0.177288
vt 0.030462 0.669294
vt 0.644308 0.826071
vt 0.653141 0.441145
vt 0.679561 0.847561
vt 0.767860 0.982387
vt 0.660686 0.958825
vt 0.653452 0.908024
vt 0.986734 0.700253
vt 0.993015 0.762906
vt 0.956823 0.832240
vt 0.905887 0.697214
vt 0.918820 0.901552
vt 0.799253 0.718603
vt 0.862867 0.936885
vt 0.724828 0.775699
vt 0.808500 0.436514
vt 0.784282 0.643373
vt 0.566301 0.140779
vt 0.808500 0.258815
vt 0.032235 0.404612
vn -0.6046 0.6546 -0.4537
vn -0.1636 0.9137 -0.3719
vn -0.0376 0.9515 -0.3054
vn -0.1305 0.8403 -0.5263
vn 0.2239 0.9383 -0.2634
vn 0.5544 0.6873 -0.4694
vn 0.6911 0.6526 0.3105
vn 0.4184 0.8975 0.1391
vn 0.1869 0.9310 0.3136
vn 0.1973 0.6980 0.6884
vn -0.2468 0.9080 0.3385
vn -0.3528 0.6291 0.6927
vn 0.5706 0.2950 -0.7664
vn 0.9255 0.2470 -0.2872
vn 0.8804 -0.3990 -0.2562
vn 0.6802 -0.4380 -0.5878
vn 0.5078 0.8381 -0.1992
vn 0.1986 0.9754 -0.0953
vn 0.1639 0.9852 -0.0497
vn -0.2990 0.9362 0.1847
vn 0.1240 0.9922 -0.0130
vn 0.0201 0.9989 -0.0415
vn 0.5044 0.7832 -0.3635
vn 0.2098 0.9334 -0.2913
vn 0.0164 0.9185 -0.3950
vn 0.0324 0.9427 -0.3321
vn -0.3804 0.8996 -0.2143
vn -0.0343 0.9780 -0.2056
vn -0.5235 0.1411 0.8402
vn -0.8161 0.0885 0.5711
vn -0.6385 -0.6387 0.4294
vn -0.3992 -0.5654 0.7218
vn 0.0926 0.1413 0.9856
vn 0.0801 -0.6032 0.7936
vn 0.7240 0.0362 0.6889
vn 0.6821 -0.6455 0.3436
vn -0.9743 0.0302 -0.2234
vn -0.8148 0.2184 -0.5370
vn -0.7451 -0.5210 -0.4164
vn -0.8597 -0.4886 -0.1491
vn 0.4587 0.8246 -0.3311
vn 0.8172 0.4991 -0.2881
vn 0.7830 0.4612 -0.4173
vn 0.8060 0.5435 -0.2345
vn -0.7072 0.5488 0.4457
vn -0.4918 0.8682 0.0655
vn -0.8192 0.5365 0.2028
vn -0.8243 0.4984 -0.2687
vn -0.9880 0.0125 0.1540
vn 0.9769 0.0417 -0.2096
vn 0.9179 0.1170 -0.3791
vn -0.2288 0.2786 -0.9328
vn 0.1767 0.9842 -0.0112
vn 0.0982 0.9365 -0.3368
vn 0.1755 0.8900 -0.4207
vn -0.0274 0.9989 -0.0379
vn -0.7893 -0.5824 0.1945
vn -0.2965 -0.9537 0.0508
vn -0.2140 -0.9703 0.1130
vn -0.1434 -0.9663 0.2139
vn 0.8056 -0.5144 -0.2939
vn 0.7811 -0.6048 -0.1550
vn 0.3170 -0.9468 -0.0561
vn 0.3505 -0.9307 -0.1046
vn 0.0785 -0.9466 0.3127
vn -0.3118 -0.9497 -0.0279
vn -0.2569 -0.5976 -0.7595
vn 0.2752 -0.9547 0.1133
vn -0.0933 -0.9773 -0.1903
vn 0.1493 -0.9825 -0.1112
vn 0.2531 -0.9638 -0.0838
vn -0.2342 -0.9664 -0.1059
s 1
f 36/1/1 16/2/2 4/3/3 26/4/4
f 26/4/4 4/3/3 8/5/5 27/6/6
f 32/7/7 24/8/8 6/9/9 28/10/10
f 28/10/10 6/9/9 2/11/11 25/12/12
f 7/13/13 20/14/14 53/15/15 51/16/16
f 24/8/8 23/17/17 48/18/18 40/19/19
f 13/20/20 2/11/11 42/21/21 43/22/22
f 23/17/17 22/23/23 47/24/24 48/18/18
f 4/3/3 16/2/2 37/25/25 38/26/26
f 16/2/2 15/27/27 45/28/28 37/25/25
f 1/29/29 12/30/30 49/31/31 50/32/32
f 5/33/33 1/29/29 50/32/32 54/34/34
f 17/35/35 5/33/33 54/34/34 58/36/36
f 10/37/37 9/38/38 55/39/39 56/40/40
f 27/6/6 8/5/5 21/41/41 29/42/42
f 29/42/42 21/41/41 22/23/23 30/43/43
f 30/43/43 22/23/23 23/17/17 31/44/44
f 31/44/44 23/17/17 24/8/8 32/7/7
f 25/12/12 2/11/11 13/20/20 33/45/45
f 33/45/45 13/20/20 14/46/46 34/47/47
f 34/47/47 14/46/46 15/27/27 35/48/48
f 35/48/48 15/27/27 16/2/2 36/1/1
f 10/37/37 35/48/48 36/1/1 9/38/38
f 11/49/49 34/47/47 35/48/48 10/37/37
f 12/30/30 33/45/45 34/47/47 11/49/49
f 1/29/29 25/12/12 33/45/45 12/30/30
f 18/50/50 31/44/44 32/7/7 17/35/35
f 19/51/51 30/43/43 31/44/44 18/50/50
f 20/14/14 29/42/42 30/43/43 19/51/51
f 7/13/13 27/6/6 29/42/42 20/14/14
f 5/33/33 28/10/10 25/12/12 1/29/29
f 17/35/35 32/7/7 28/10/10 5/33/33
f 3/52/52 26/4/4 27/6/6 7/13/13
f 9/38/38 36/1/1 26/4/4 3/52/52
f 40/19/19 43/22/22 42/21/21 41/53/53
f 39/54/54 38/26/26 37/25/25 46/55/55
f 46/55/55 37/25/25 45/28/28 47/24/24
f 47/24/24 45/28/28 44/56/56 48/18/18
f 48/18/18 44/56/56 43/22/22 40/19/19
f 14/46/46 13/20/20 43/22/22 44/56/56
f 21/41/41 8/5/5 39/54/54 46/55/55
f 2/11/11 6/9/9 41/53/53 42/21/21
f 15/27/27 14/46/46 44/56/56 45/28/28
f 22/23/23 21/41/41 46/55/55 47/24/24
f 6/9/9 24/8/8 40/19/19 41/53/53
f 8/5/5 4/3/3 38/26/26 39/54/54
f 49/31/31 57/57/57 69/58/58 61/59/59
f 50/32/32 49/31/31 61/59/59 62/60/60
f 60/61/61 59/62/62 71/63/63 72/64/64
f 54/34/34 50/32/32 62/60/60 66/65/65
f 57/57/57 56/40/40 68/66/66 69/58/58
f 11/49/49 10/37/37 56/40/40 57/57/57
f 18/50/50 17/35/35 58/36/36 59/62/62
f 3/52/52 7/13/13 51/16/16 52/67/67
f 12/30/30 11/49/49 57/57/57 49/31/31
f 19/51/51 18/50/50 59/62/62 60/61/61
f 9/38/38 3/52/52 52/67/67 55/39/39
f 20/14/14 19/51/51 60/61/61 53/15/15
f 61/68/59 70/69/68 66/70/65 62/71/60
f 64/72/69 63/73/70 65/74/71 67/75/72
f 67/75/72 65/74/71 72/76/64 68/77/66
f 68/77/66 72/76/64 71/78/63 69/79/58
f 69/79/58 71/78/63 70/69/68 61/68/59
f 55/39/39 52/67/67 64/80/69 67/81/72
f 53/15/15 60/61/61 72/64/64 65/82/71
f 52/67/67 51/16/16 63/83/70 64/80/69
f 58/36/36 54/34/34 66/65/65 70/84/68
f 56/40/40 55/39/39 67/81/72 68/66/66
f 51/16/16 53/15/15 65/82/71 63/83/70
f 59/62/62 58/36/36 70/84/68 71/63/63
