# Blender v3.2.2 OBJ File: 'Env_1e.blend'
# www.blender.org
o Points_Plane.051
v -1.174070 1.482614 -4.130815
v -1.019518 1.462798 -4.130740
v -1.100876 1.450599 -4.014218
v -5.382843 1.235082 -2.750549
v -5.181870 1.271744 -2.698349
v -5.275040 1.246327 -2.587906
v -2.442184 1.821920 -6.694611
v -2.257690 1.794780 -6.724274
v -2.347275 1.790195 -6.578400
v -1.226898 1.740276 -9.572006
v -1.034439 1.693114 -9.635757
v -1.127670 1.699630 -9.459244
v -2.512314 1.906862 -9.565216
v -2.309982 1.873633 -9.607361
v -2.404800 1.878588 -9.428040
v -3.800003 2.320292 -9.681137
v -3.617477 2.247893 -9.787369
v -3.698441 2.278739 -9.562500
v -13.622452 2.397713 -2.151260
v -13.268188 2.369980 -2.270676
v -13.483063 2.348204 -1.996368
v -15.214554 3.012005 -3.247864
v -14.852142 2.985946 -3.369110
v -15.077988 2.946075 -3.106720
v -19.562500 3.777572 -6.344116
v -19.084625 3.868343 -6.315964
v -19.377579 3.758103 -6.121796
v -18.531647 3.130885 -3.284348
v -18.117569 3.165794 -3.307938
v -18.375885 3.086621 -3.103836
v -16.864304 2.673479 -1.879837
v -16.477295 2.676277 -1.927856
v -16.724106 2.607647 -1.723969
v -4.003531 7.123591 -5.599991
v -3.551820 7.182992 -5.574053
v -4.106283 6.782524 -5.577096
v -8.728479 7.293960 -6.244822
v -8.212704 7.330510 -6.260357
v -8.631556 7.178575 -5.829590
v -4.582150 7.732115 -6.650515
v -4.122935 7.785910 -6.631531
v -4.479324 7.696663 -6.190049
vt 0.000000 0.000000
vt 0.000000 0.000000
vt 0.000000 0.000000
vt 0.000000 0.000000
vt 0.000000 0.000000
vt 0.000000 0.000000
vt 0.000000 0.000000
vt 0.000000 0.000000
vt 0.000000 0.000000
vt 0.000000 0.000000
vt 0.000000 0.000000
vt 0.000000 0.000000
vt 0.000000 0.000000
vt 0.000000 0.000000
vt 0.000000 0.000000
vt 0.000000 0.000000
vt 0.000000 0.000000
vt 0.000000 0.000000
vt 0.000000 0.000000
vt 0.000000 0.000000
vt 0.000000 0.000000
vt 0.000000 0.000000
vt 0.000000 0.000000
vt 0.000000 0.000000
vt 0.000000 0.000000
vt 0.000000 0.000000
vt 0.000000 0.000000
vt 0.000000 0.000000
vt 0.000000 0.000000
vt 0.000000 0.000000
vt 0.000000 0.000000
vt 0.000000 0.000000
vt 0.000000 0.000000
vt 0.000000 0.000000
vt 0.000000 0.000000
vt 0.000000 0.000000
vt 0.000000 0.000000
vt 0.000000 0.000000
vt 0.000000 0.000000
vt 0.000000 0.000000
vt 0.000000 0.000000
vt 0.000000 0.000000
vn 0.1248 0.9740 0.1891
vn -0.1945 0.9790 0.0612
vn 0.1650 0.9774 0.1321
vn 0.2700 0.9569 0.1073
vn 0.1750 0.9824 0.0654
vn 0.3720 0.9282 0.0066
vn 0.1388 0.9727 0.1860
vn 0.1629 0.9450 0.2838
vn -0.1948 0.9497 0.2452
vn -0.0640 0.9551 0.2894
vn 0.0379 0.9323 0.3597
vn -0.0686 0.0874 0.9938
vn -0.0595 0.9581 0.2801
vn -0.1199 0.9874 0.1028
s off
f 1/1/1 3/2/1 2/3/1
f 4/4/2 6/5/2 5/6/2
f 7/7/3 9/8/3 8/9/3
f 10/10/4 12/11/4 11/12/4
f 13/13/5 15/14/5 14/15/5
f 16/16/6 18/17/6 17/18/6
f 19/19/7 21/20/7 20/21/7
f 22/22/8 24/23/8 23/24/8
f 25/25/9 27/26/9 26/27/9
f 28/28/10 30/29/10 29/30/10
f 31/31/11 33/32/11 32/33/11
f 34/34/12 36/35/12 35/36/12
f 37/37/13 39/38/13 38/39/13
f 40/40/14 42/41/14 41/42/14
