# Blender v3.2.2 OBJ File: 'Env_1i.blend'
# www.blender.org
o Fern_1_Plane.075
v 0.381114 -0.033634 0.378677
v -0.337566 0.875600 1.180396
v -0.324238 0.017237 -0.328352
v -1.042918 0.926470 0.473368
v -0.141866 0.944505 0.988723
v 0.117766 0.883394 0.720939
v 0.293649 0.646487 0.526188
v 0.367078 0.328023 0.423659
v -0.338275 0.378894 -0.283370
v -0.411704 0.697357 -0.180840
v -0.587587 0.934265 0.013911
v -0.847219 0.995376 0.281694
v -0.509515 -0.006299 0.158006
v -0.896289 0.755386 -1.129775
v 0.448221 -0.006299 -0.129643
v 0.061447 0.755386 -1.417424
v -0.808341 0.838438 -0.836948
v -0.688062 0.808764 -0.436473
v -0.607591 0.588445 -0.168543
v -0.543375 0.319524 0.045266
v 0.414361 0.319524 -0.242382
v 0.350145 0.588445 -0.456192
v 0.269675 0.808764 -0.724121
v 0.149395 0.838438 -1.124597
v 0.364029 -0.006299 -0.397081
v 1.376229 0.955606 0.473585
v -0.317388 -0.006299 0.334814
v 0.694812 0.955606 1.205480
v 1.159208 1.001602 0.283567
v 0.847842 0.905632 0.018203
v 0.591709 0.710398 -0.219820
v 0.427313 0.408114 -0.362305
v -0.254104 0.408114 0.369590
v -0.089708 0.710398 0.512076
v 0.166425 0.905632 0.750098
v 0.477790 1.001602 1.015463
v 0.194604 -0.006298 0.498411
v -1.175188 0.385602 0.980701
v -0.169019 -0.006298 -0.433135
v -1.538811 0.385602 0.049155
v -0.903722 0.478700 0.883342
v -0.465996 0.506650 0.728176
v -0.163541 0.376380 0.621513
v 0.060855 0.199492 0.543896
v -0.302768 0.199492 -0.387650
v -0.527165 0.376380 -0.310033
v -0.829619 0.506650 -0.203370
v -1.267345 0.478700 -0.048204
v 0.392738 -0.006299 0.355957
v -0.187041 0.552513 1.231878
v -0.343998 -0.006298 -0.320224
v -0.966554 0.552513 0.814300
v -0.050579 0.634686 1.017610
v 0.150924 0.587732 0.704783
v 0.277754 0.417815 0.483542
v 0.364875 0.192256 0.332546
v -0.414638 0.192256 -0.085032
v -0.501758 0.417815 0.065965
v -0.628588 0.587732 0.287205
v -0.830091 0.634686 0.600032
v -0.329904 -0.006298 -0.425322
v 0.762119 0.386043 -1.304449
v 0.279674 -0.006299 0.367404
v 1.371697 0.386043 -0.511723
v 0.567997 0.490568 -1.181967
v 0.236525 0.571275 -0.969993
v -0.060352 0.489715 -0.737421
v -0.224552 0.276910 -0.571631
v 0.385026 0.276910 0.221096
v 0.549226 0.489715 0.055305
v 0.846103 0.571275 -0.177267
v 1.177575 0.490568 -0.389241
v 0.456673 -0.000000 0.000000
v 0.456674 2.000000 -0.000000
v -0.313862 -0.000000 0.000000
v -0.313862 2.000000 0.000000
v 0.456673 0.400000 0.000000
v 0.456674 0.800000 -0.000000
v 0.456673 1.200000 0.000000
v 0.456674 1.600000 -0.000000
v -0.313862 0.400000 -0.000000
v -0.313862 0.800000 0.000000
v -0.313862 1.200000 0.000000
v -0.313861 1.600000 -0.000000
vt 0.529814 0.940304
vt 0.683199 0.940304
vt 0.683199 0.995804
vt 0.529814 0.995804
vt 0.529814 0.718304
vt 0.683199 0.718304
vt 0.683199 0.773804
vt 0.529814 0.773804
vt 0.683199 0.829304
vt 0.529814 0.829304
vt 0.683199 0.884804
vt 0.529814 0.884804
vt 0.529814 0.940304
vt 0.683199 0.940304
vt 0.683199 0.995804
vt 0.529814 0.995804
vt 0.529814 0.718304
vt 0.683199 0.718304
vt 0.683199 0.773804
vt 0.529814 0.773804
vt 0.683199 0.829304
vt 0.529814 0.829304
vt 0.683199 0.884804
vt 0.529814 0.884804
vt 0.529814 0.940304
vt 0.683199 0.940304
vt 0.683199 0.995804
vt 0.529814 0.995804
vt 0.529814 0.718304
vt 0.683199 0.718304
vt 0.683199 0.773804
vt 0.529814 0.773804
vt 0.683199 0.829304
vt 0.529814 0.829304
vt 0.683199 0.884804
vt 0.529814 0.884804
vt 0.529814 0.940304
vt 0.683199 0.940304
vt 0.683199 0.995804
vt 0.529814 0.995804
vt 0.529814 0.718304
vt 0.683199 0.718304
vt 0.683199 0.773804
vt 0.529814 0.773804
vt 0.683199 0.829304
vt 0.529814 0.829304
vt 0.683199 0.884804
vt 0.529814 0.884804
vt 0.529814 0.940304
vt 0.683199 0.940304
vt 0.683199 0.995804
vt 0.529814 0.995804
vt 0.529814 0.718304
vt 0.683199 0.718304
vt 0.683199 0.773804
vt 0.529814 0.773804
vt 0.683199 0.829304
vt 0.529814 0.829304
vt 0.683199 0.884804
vt 0.529814 0.884804
vt 0.529814 0.940304
vt 0.683199 0.940304
vt 0.683199 0.995804
vt 0.529814 0.995804
vt 0.529814 0.718304
vt 0.683199 0.718304
vt 0.683199 0.773804
vt 0.529814 0.773804
vt 0.683199 0.829304
vt 0.529814 0.829304
vt 0.683199 0.884804
vt 0.529814 0.884804
vt 0.786208 0.940304
vt 0.906483 0.940304
vt 0.906483 0.995804
vt 0.786208 0.995804
vt 0.786208 0.718304
vt 0.906483 0.718304
vt 0.906483 0.773804
vt 0.786208 0.773804
vt 0.906483 0.829304
vt 0.786208 0.829304
vt 0.906483 0.884804
vt 0.786208 0.884804
vn 0.0058 0.9978 0.0660
vn 0.0069 0.9979 0.0649
vn -0.1380 0.9685 0.2073
vn 0.7074 0.1142 -0.6975
vn 0.6959 0.2396 -0.6770
vn 0.6956 0.2414 -0.6766
vn 0.6038 0.5656 -0.5617
vn 0.6028 0.5677 -0.5606
vn 0.3407 0.8990 -0.2752
vn 0.3392 0.9000 -0.2736
vn -0.0279 0.9953 -0.0929
vn -0.0754 0.9650 -0.2511
vn 0.2705 0.3398 0.9008
vn 0.2497 0.4967 0.8312
vn 0.2008 0.7162 0.6684
vn 0.1037 0.9327 0.3454
vn -0.0231 0.9995 -0.0215
vn -0.0298 0.9992 -0.0278
vn 0.1153 0.9875 0.1074
vn -0.7217 0.1666 -0.6719
vn -0.6767 0.3810 -0.6300
vn -0.6741 0.3895 -0.6276
vn -0.4880 0.7453 -0.4543
vn -0.4863 0.7474 -0.4527
vn -0.2660 0.9316 -0.2476
vn -0.2633 0.9330 -0.2452
vn -0.1704 0.9831 0.0665
vn -0.1746 0.9823 0.0682
vn -0.2863 0.9516 0.1117
vn 0.7682 0.5656 -0.2999
vn 0.6697 0.6951 -0.2614
vn 0.6735 0.6908 -0.2629
vn 0.4554 0.8724 -0.1778
vn 0.4595 0.8699 -0.1794
vn 0.1470 0.9875 -0.0574
vn 0.1552 0.9860 -0.0606
vn -0.0392 0.9965 0.0732
vn -0.0493 0.9945 0.0921
vn -0.1457 0.9512 0.2720
vn 0.5066 0.5002 -0.7023
vn 0.4445 0.5556 -0.7027
vn 0.4458 0.5545 -0.7027
vn 0.3213 0.7329 -0.5997
vn 0.3228 0.7298 -0.6026
vn 0.1616 0.9396 -0.3017
vn 0.1685 0.9342 -0.3145
vn 0.2417 0.9524 -0.1859
vn 0.2510 0.9486 -0.1930
vn 0.3297 0.9094 -0.2535
vn -0.6768 0.5206 0.5204
vn -0.6184 0.6257 0.4755
vn -0.6069 0.6433 0.4667
vn -0.3714 0.8835 0.2856
vn -0.3582 0.8921 0.2754
vn -0.0000 1.0000 0.0000
vn -0.0081 0.9999 0.0062
vn 0.0000 0.0000 1.0000
s 1
f 5/1/1 12/2/2 4/3/3 2/4/3
f 1/5/4 3/6/4 9/7/5 8/8/6
f 8/8/6 9/7/5 10/9/7 7/10/8
f 7/10/8 10/9/7 11/11/9 6/12/10
f 6/12/10 11/11/9 12/2/2 5/1/1
f 17/13/11 24/14/11 16/15/12 14/16/12
f 13/17/13 15/18/13 21/19/14 20/20/14
f 20/20/14 21/19/14 22/21/15 19/22/15
f 19/22/15 22/21/15 23/23/16 18/24/16
f 18/24/16 23/23/16 24/14/11 17/13/11
f 29/25/17 36/26/18 28/27/19 26/28/19
f 25/29/20 27/30/20 33/31/21 32/32/22
f 32/32/22 33/31/21 34/33/23 31/34/24
f 31/34/24 34/33/23 35/35/25 30/36/26
f 30/36/26 35/35/25 36/26/18 29/25/17
f 41/37/27 48/38/28 40/39/29 38/40/29
f 37/41/30 39/42/30 45/43/31 44/44/32
f 44/44/32 45/43/31 46/45/33 43/46/34
f 43/46/34 46/45/33 47/47/35 42/48/36
f 42/48/36 47/47/35 48/38/28 41/37/27
f 53/49/37 60/50/38 52/51/39 50/52/39
f 49/53/40 51/54/40 57/55/41 56/56/42
f 56/56/42 57/55/41 58/57/43 55/58/44
f 55/58/44 58/57/43 59/59/45 54/60/46
f 54/60/46 59/59/45 60/50/38 53/49/37
f 65/61/47 72/62/48 64/63/49 62/64/49
f 61/65/50 63/66/50 69/67/51 68/68/52
f 68/68/52 69/67/51 70/69/53 67/70/54
f 67/70/54 70/69/53 71/71/55 66/72/56
f 66/72/56 71/71/55 72/62/48 65/61/47
f 84/73/57 80/74/57 74/75/57 76/76/57
f 75/77/57 73/78/57 77/79/57 81/80/57
f 81/80/57 77/79/57 78/81/57 82/82/57
f 82/82/57 78/81/57 79/83/57 83/84/57
f 83/84/57 79/83/57 80/74/57 84/73/57
