# Blender v3.2.2 OBJ File: 'Env_1h.blend'
# www.blender.org
o Plant_1.001_Plane.015
v -1.000000 0.035389 0.000000
v 1.000000 0.035389 0.000000
v -1.000000 0.035389 -2.000000
v 1.000000 0.035389 -2.000000
v -0.000000 0.311925 -0.127866
v 0.000000 0.330602 -2.000000
v -1.000000 0.211353 -1.000000
v 1.000000 0.211353 -1.000000
v 0.000000 0.713334 -1.000000
v -1.000000 0.198311 -0.500000
v 1.000000 0.198311 -0.500000
v 0.000000 0.612779 -0.500000
v 1.000000 0.198311 -1.500000
v 0.000000 0.612779 -1.500000
v -1.000000 0.198311 -1.500000
v -0.018246 0.306658 -0.127866
v 0.016902 0.306900 -0.127866
v -0.027271 0.000000 0.000000
v 0.026505 0.000000 0.000000
v -0.000383 0.000000 0.000000
v 0.529564 0.035389 -0.848270
v -0.529564 0.035389 0.848270
v 2.226104 0.035389 0.210857
v 1.166977 0.035389 1.907398
v 0.108465 0.311925 0.067713
v 1.696540 0.330602 1.059127
v 1.377834 0.211353 -0.318707
v 0.318707 0.211353 1.377834
v 0.848270 0.713334 0.529564
v 0.953699 0.198311 -0.583488
v -0.105429 0.198311 1.113052
v 0.424135 0.612779 0.264782
v 0.742842 0.198311 1.642616
v 1.272405 0.612779 0.794345
v 1.801969 0.198311 -0.053925
v 0.118127 0.306658 0.052236
v 0.099514 0.306900 0.082050
v 0.014441 0.000000 -0.023133
v -0.014036 0.000000 0.022484
v 0.000203 0.000000 -0.000325
v 0.380254 0.035389 0.924882
v -0.380254 0.035389 -0.924882
v -1.469510 0.035389 1.685390
v -2.230018 0.035389 -0.164374
v -0.118261 0.311925 0.048622
v -1.849764 0.330602 0.760508
v -0.544628 0.211353 1.305136
v -1.305136 0.211353 -0.544628
v -0.924882 0.713334 0.380254
v -0.082187 0.198311 1.115009
v -0.842695 0.198311 -0.734755
v -0.462441 0.612779 0.190127
v -1.767577 0.198311 -0.354501
v -1.387323 0.612779 0.570381
v -1.007069 0.198311 1.495263
v -0.111323 0.306658 0.065497
v -0.124688 0.306900 0.032989
v 0.010370 0.000000 0.025222
v -0.010079 0.000000 -0.024514
v 0.000145 0.000000 0.000354
v -0.396647 0.416962 0.766831
v 0.396647 0.416962 -0.766831
v -1.930308 0.416962 -0.026464
v -1.137014 0.416962 -1.560125
v -0.098051 0.613939 -0.050718
v -1.533661 0.627242 -0.793294
v -1.163478 0.542301 0.370184
v -0.370184 0.542301 -1.163478
v -0.766831 0.899863 -0.396647
v -0.780062 0.533011 0.568507
v 0.013232 0.533011 -0.965154
v -0.383415 0.828237 -0.198324
v -0.753599 0.533011 -1.361801
v -1.150246 0.828237 -0.594971
v -1.546893 0.533011 0.171860
v -0.105289 0.610187 -0.036726
v -0.091347 0.610359 -0.063678
v -0.010817 0.391754 0.020912
v 0.010513 0.391754 -0.020325
v -0.000152 0.391754 0.000293
v -0.440430 0.416962 -0.742550
v 0.440430 0.416962 0.742550
v 1.044670 0.416962 -1.623409
v 1.925529 0.416962 -0.138310
v 0.094947 0.613939 -0.056316
v 1.485099 0.627242 -0.880859
v 0.302120 0.542301 -1.182979
v 1.182979 0.542301 0.302120
v 0.742550 0.899863 -0.440430
v -0.069155 0.533011 -0.962764
v 0.811704 0.533011 0.522335
v 0.371275 0.828237 -0.220215
v 1.554254 0.533011 0.081905
v 1.113824 0.828237 -0.660645
v 0.673395 0.533011 -1.403194
v 0.086911 0.610187 -0.069864
v 0.102391 0.610359 -0.043766
v -0.012011 0.391754 -0.020250
v 0.011674 0.391754 0.019682
v -0.000168 0.391754 -0.000284
v 0.860054 0.416962 0.075261
v -0.860054 0.416962 -0.075261
v 0.709532 0.416962 1.795370
v -1.010577 0.416962 1.644848
v -0.009623 0.613938 0.109972
v -0.150523 0.627242 1.720109
v 0.784793 0.542301 0.935316
v -0.935316 0.542301 0.784793
v -0.075261 0.899863 0.860054
v 0.822424 0.533011 0.505289
v -0.897685 0.533011 0.354766
v -0.037631 0.828237 0.430027
v -0.972947 0.533011 1.214821
v -0.112892 0.828237 1.290082
v 0.747162 0.533011 1.365343
v 0.006069 0.610187 0.111345
v -0.024160 0.610359 0.108700
v 0.023454 0.391754 0.002052
v -0.022796 0.391754 -0.001995
v 0.000329 0.391754 0.000029
v 0.410642 0.703242 0.610062
v -0.410642 0.703242 -0.610062
v -0.809481 0.703242 1.431347
v -1.630766 0.703242 0.211223
v -0.078006 0.857307 0.052507
v -1.220123 0.867712 0.821285
v -0.199419 0.801276 1.020704
v -1.020704 0.801276 -0.199419
v -0.610062 1.080942 0.410642
v 0.105612 0.794010 0.815383
v -0.715673 0.794010 -0.404740
v -0.305031 1.024920 0.205321
v -1.325735 0.794010 0.005902
v -0.915093 1.024920 0.615964
v -0.504450 0.794010 1.226025
v -0.070514 0.854373 0.063638
v -0.084947 0.854507 0.042196
v 0.011198 0.683526 0.016637
v -0.010884 0.683526 -0.016170
v 0.000157 0.683526 0.000233
v -0.734958 0.703242 0.025269
v 0.734958 0.703242 -0.025269
v -0.785497 0.703242 -1.444648
v 0.684420 0.703242 -1.495186
v -0.003231 0.857307 -0.093976
v -0.050539 0.867712 -1.469917
v -0.760228 0.801276 -0.709689
v 0.709689 0.801276 -0.760228
v -0.025269 1.080942 -0.734958
v -0.747593 0.794010 -0.342210
v 0.722324 0.794010 -0.392749
v -0.012635 1.024920 -0.367479
v 0.697055 0.794010 -1.127707
v -0.037904 1.024920 -1.102438
v -0.772863 0.794010 -1.077169
v -0.016641 0.854373 -0.093515
v 0.009191 0.854507 -0.094403
v -0.020043 0.683526 0.000689
v 0.019480 0.683526 -0.000670
v -0.000281 0.683526 0.000010
v 0.408087 0.703242 -0.611774
v -0.408087 0.703242 0.611774
v 1.631635 0.703242 0.204399
v 0.815462 0.703242 1.427948
v 0.078225 0.857307 0.052180
v 1.223548 0.867712 0.816173
v 1.019861 0.801276 -0.203688
v 0.203688 0.801276 1.019861
v 0.611774 1.080942 0.408087
v 0.713974 0.794010 -0.407731
v -0.102200 0.794010 0.815818
v 0.305887 1.024920 0.204043
v 0.509575 0.794010 1.223904
v 0.917661 1.024920 0.612130
v 1.325748 0.794010 0.000356
v 0.085671 0.854373 0.041018
v 0.071328 0.854507 0.062520
v 0.011129 0.683526 -0.016683
v -0.010817 0.683526 0.016215
v 0.000156 0.683526 -0.000234
vt 0.351216 0.767500
vt 0.350225 0.767411
vt 0.349734 0.761911
vt 0.351195 0.761911
vt 0.352134 0.767415
vt 0.352656 0.761911
vt 0.351216 0.767500
vt 0.350225 0.767411
vt 0.349734 0.761911
vt 0.351195 0.761911
vt 0.352134 0.767415
vt 0.352656 0.761911
vt 0.351216 0.767500
vt 0.350225 0.767411
vt 0.349734 0.761911
vt 0.351195 0.761911
vt 0.352134 0.767415
vt 0.352656 0.761911
vt 0.351216 0.767500
vt 0.350225 0.767411
vt 0.349734 0.761911
vt 0.351195 0.761911
vt 0.352134 0.767415
vt 0.352656 0.761911
vt 0.351216 0.767500
vt 0.350225 0.767411
vt 0.349734 0.761911
vt 0.351195 0.761911
vt 0.352134 0.767415
vt 0.352656 0.761911
vt 0.351216 0.767500
vt 0.350225 0.767411
vt 0.349734 0.761911
vt 0.351195 0.761911
vt 0.352134 0.767415
vt 0.352656 0.761911
vt 0.351216 0.767500
vt 0.350225 0.767411
vt 0.349734 0.761911
vt 0.351195 0.761911
vt 0.352134 0.767415
vt 0.352656 0.761911
vt 0.351216 0.767500
vt 0.350225 0.767411
vt 0.349734 0.761911
vt 0.351195 0.761911
vt 0.352134 0.767415
vt 0.352656 0.761911
vt 0.351216 0.767500
vt 0.350225 0.767411
vt 0.349734 0.761911
vt 0.351195 0.761911
vt 0.352134 0.767415
vt 0.352656 0.761911
vt 0.349734 0.761911
vt 0.352656 0.761911
vt 0.326202 0.926026
vt 0.473357 0.926026
vt 0.473357 0.999603
vt 0.326202 0.999603
vt 0.179048 0.926026
vt 0.179048 0.999603
vt 0.179048 0.778871
vt 0.326202 0.778871
vt 0.326202 0.852448
vt 0.179048 0.852448
vt 0.473357 0.778871
vt 0.473357 0.852448
vt 0.326202 0.705294
vt 0.473357 0.705294
vt 0.179048 0.705294
vt 0.326202 0.926026
vt 0.473357 0.926026
vt 0.473357 0.999603
vt 0.326202 0.999603
vt 0.179048 0.926026
vt 0.179048 0.999603
vt 0.179048 0.778871
vt 0.326202 0.778871
vt 0.326202 0.852448
vt 0.179048 0.852448
vt 0.473357 0.778871
vt 0.473357 0.852448
vt 0.326202 0.705294
vt 0.473357 0.705294
vt 0.179048 0.705294
vt 0.326202 0.926026
vt 0.473357 0.926026
vt 0.473357 0.999603
vt 0.326202 0.999603
vt 0.179048 0.926026
vt 0.179048 0.999603
vt 0.179048 0.778871
vt 0.326202 0.778871
vt 0.326202 0.852448
vt 0.179048 0.852448
vt 0.473357 0.778871
vt 0.473357 0.852448
vt 0.326202 0.705294
vt 0.473357 0.705294
vt 0.179048 0.705294
vt 0.326202 0.926026
vt 0.473357 0.926026
vt 0.473357 0.999603
vt 0.326202 0.999603
vt 0.179048 0.926026
vt 0.179048 0.999603
vt 0.179048 0.778871
vt 0.326202 0.778871
vt 0.326202 0.852448
vt 0.179048 0.852448
vt 0.473357 0.778871
vt 0.473357 0.852448
vt 0.326202 0.705294
vt 0.473357 0.705294
vt 0.179048 0.705294
vt 0.326202 0.926026
vt 0.473357 0.926026
vt 0.473357 0.999603
vt 0.326202 0.999603
vt 0.179048 0.926026
vt 0.179048 0.999603
vt 0.179048 0.778871
vt 0.326202 0.778871
vt 0.326202 0.852448
vt 0.179048 0.852448
vt 0.473357 0.778871
vt 0.473357 0.852448
vt 0.326202 0.705294
vt 0.473357 0.705294
vt 0.179048 0.705294
vt 0.326202 0.926026
vt 0.473357 0.926026
vt 0.473357 0.999603
vt 0.326202 0.999603
vt 0.179048 0.926026
vt 0.179048 0.999603
vt 0.179048 0.778871
vt 0.326202 0.778871
vt 0.326202 0.852448
vt 0.179048 0.852448
vt 0.473357 0.778871
vt 0.473357 0.852448
vt 0.326202 0.705294
vt 0.473357 0.705294
vt 0.179048 0.705294
vt 0.326202 0.926026
vt 0.473357 0.926026
vt 0.473357 0.999603
vt 0.326202 0.999603
vt 0.179048 0.926026
vt 0.179048 0.999603
vt 0.179048 0.778871
vt 0.326202 0.778871
vt 0.326202 0.852448
vt 0.179048 0.852448
vt 0.473357 0.778871
vt 0.473357 0.852448
vt 0.326202 0.705294
vt 0.473357 0.705294
vt 0.179048 0.705294
vt 0.326202 0.926026
vt 0.473357 0.926026
vt 0.473357 0.999603
vt 0.326202 0.999603
vt 0.179048 0.926026
vt 0.179048 0.999603
vt 0.179048 0.778871
vt 0.326202 0.778871
vt 0.326202 0.852448
vt 0.179048 0.852448
vt 0.473357 0.778871
vt 0.473357 0.852448
vt 0.326202 0.705294
vt 0.473357 0.705294
vt 0.179048 0.705294
vt 0.326202 0.926026
vt 0.473357 0.926026
vt 0.473357 0.999603
vt 0.326202 0.999603
vt 0.179048 0.926026
vt 0.179048 0.999603
vt 0.179048 0.778871
vt 0.326202 0.778871
vt 0.326202 0.852448
vt 0.179048 0.852448
vt 0.473357 0.778871
vt 0.473357 0.852448
vt 0.326202 0.705294
vt 0.473357 0.705294
vt 0.179048 0.705294
vn -0.0116 0.6385 0.7695
vn -0.0392 0.4041 0.9139
vn -0.0114 0.4044 0.9145
vn 0.0385 0.4040 0.9139
vn 0.0111 0.6385 0.7696
vn 0.0107 0.4043 0.9146
vn -0.6467 0.6385 -0.4173
vn -0.7545 0.4041 -0.5172
vn -0.7697 0.4044 -0.4940
vn -0.7956 0.4040 -0.4514
vn -0.6587 0.6385 -0.3981
vn -0.7815 0.4043 -0.4752
vn 0.7161 0.6385 -0.2819
vn 0.8601 0.4041 -0.3113
vn 0.8502 0.4044 -0.3372
vn 0.8307 0.4040 -0.3831
vn 0.7076 0.6385 -0.3029
vn 0.8418 0.4043 -0.3577
vn 0.6409 0.6917 0.3327
vn 0.7668 0.4692 0.4381
vn 0.7663 0.4693 0.4388
vn 0.7796 0.4696 0.4144
vn 0.8004 0.4690 0.3734
vn 0.6416 0.6917 0.3314
vn 0.7884 0.4696 0.3974
vn 0.8006 0.4692 0.3726
vn -0.6216 0.6917 0.3675
vn -0.7777 0.4692 0.4185
vn -0.7780 0.4693 0.4177
vn -0.7644 0.4696 0.4418
vn -0.7406 0.4690 0.4812
vn -0.6209 0.6917 0.3688
vn -0.7546 0.4696 0.4584
vn -0.7400 0.4692 0.4819
vn 0.0640 0.6917 -0.7193
vn 0.1136 0.4692 -0.8758
vn 0.1144 0.4693 -0.8756
vn 0.0869 0.4696 -0.8786
vn 0.0410 0.4690 -0.8822
vn 0.0626 0.6917 -0.7195
vn 0.0677 0.4696 -0.8803
vn 0.0401 0.4692 -0.8822
vn 0.5771 0.7162 -0.3924
vn 0.7379 0.4997 -0.4537
vn 0.7384 0.5000 -0.4526
vn 0.7234 0.5003 -0.4759
vn 0.6985 0.4996 -0.5123
vn 0.5812 0.7161 -0.3864
vn 0.7135 0.5002 -0.4905
vn 0.6977 0.4998 -0.5132
vn 0.0273 0.7162 0.6973
vn -0.0059 0.4997 0.8662
vn -0.0071 0.5000 0.8660
vn 0.0206 0.5003 0.8656
vn 0.0646 0.4996 0.8638
vn 0.0200 0.7161 0.6977
vn 0.0382 0.5002 0.8650
vn 0.0658 0.4998 0.8636
vn -0.5824 0.7162 -0.3845
vn -0.7002 0.4997 -0.5099
vn -0.6994 0.5000 -0.5108
vn -0.7152 0.5003 -0.4881
vn -0.7394 0.4996 -0.4513
vn -0.5784 0.7161 -0.3906
vn -0.7250 0.5002 -0.4734
vn -0.7399 0.4998 -0.4502
vn -0.0241 -0.0337 -0.9991
vn 0.0235 0.0048 -0.9997
vn 0.0048 -0.0234 -0.9997
vn 0.0337 -0.0240 -0.9991
vn -0.0235 0.0047 -0.9997
vn 0.0241 -0.0336 -0.9991
vn -0.0337 -0.0241 -0.9991
vn -0.0047 -0.0235 -0.9997
vn -0.0479 0.0003 0.9989
vn -0.0003 0.0393 0.9992
vn -0.0912 0.0314 0.9953
vn -0.0658 0.0321 0.9973
vn -0.0051 -0.0275 0.9996
vn -0.0139 -0.0089 0.9999
vn -0.0773 0.0169 0.9969
vn -0.0652 -0.0729 0.9952
vn 0.1155 0.9578 -0.2631
vn 0.2903 0.9251 -0.2446
vn 0.2765 0.8918 -0.3580
vn 0.0272 0.8808 -0.4727
vn -0.2687 0.9312 -0.2462
vn -0.2259 0.9040 -0.3629
vn -0.2798 0.9258 0.2540
vn -0.0159 0.9863 0.1643
vn -0.1375 0.9905 -0.0091
vn -0.3202 0.9473 -0.0068
vn 0.2503 0.9337 0.2560
vn 0.2874 0.9578 -0.0069
vn -0.0001 0.7361 0.6769
vn 0.2266 0.8916 0.3920
vn -0.2266 0.8916 0.3920
vn 0.1620 0.9578 0.2373
vn 0.0537 0.9251 0.3758
vn 0.1573 0.8918 0.4242
vn 0.3866 0.8808 0.2734
vn 0.3512 0.9312 -0.0976
vn 0.4275 0.9040 0.0006
vn -0.0673 0.9258 -0.3719
vn -0.1310 0.9863 -0.1005
vn 0.0806 0.9905 -0.1118
vn 0.1753 0.9473 -0.2680
vn -0.3497 0.9337 0.0767
vn -0.1463 0.9578 0.2475
vn -0.5741 0.7361 -0.3586
vn -0.4525 0.8916 -0.0154
vn -0.2125 0.8916 -0.3998
vn -0.2872 0.9578 -0.0068
vn -0.3366 0.9251 -0.1755
vn -0.4362 0.8918 -0.1196
vn -0.4476 0.8808 0.1546
vn -0.1255 0.9312 0.3422
vn -0.2498 0.9040 0.3469
vn 0.3413 0.9258 0.1622
vn 0.1580 0.9863 -0.0478
vn 0.0439 0.9905 0.1306
vn 0.1155 0.9473 0.2987
vn 0.1416 0.9337 -0.3288
vn -0.1157 0.9578 -0.2632
vn 0.6261 0.7361 -0.2573
vn 0.2764 0.8916 -0.3586
vn 0.4487 0.8916 0.0605
vn -0.1448 0.9685 -0.2024
vn -0.0739 0.9499 -0.3038
vn -0.1621 0.9244 -0.3453
vn -0.3531 0.9109 -0.2136
vn -0.2818 0.9547 0.0954
vn -0.3563 0.9342 0.0196
vn 0.0816 0.9507 0.2992
vn 0.1044 0.9920 0.0715
vn -0.0693 0.9910 0.1147
vn -0.1231 0.9669 0.2233
vn 0.2792 0.9570 -0.0792
vn 0.0957 0.9751 -0.1999
vn 0.5491 0.7859 0.2842
vn 0.3786 0.9254 -0.0172
vn 0.2047 0.9254 0.3190
vn 0.2484 0.9685 -0.0156
vn 0.2969 0.9499 0.0982
vn 0.3787 0.9244 0.0454
vn 0.3682 0.9109 -0.1865
vn 0.0683 0.9547 -0.2896
vn 0.1721 0.9342 -0.3126
vn -0.2970 0.9507 -0.0892
vn -0.1160 0.9920 0.0507
vn -0.0606 0.9910 -0.1195
vn -0.1242 0.9669 -0.2227
vn -0.0806 0.9570 0.2788
vn 0.1189 0.9751 0.1870
vn -0.5319 0.7859 0.3153
vn -0.1859 0.9254 0.3303
vn -0.3790 0.9254 0.0047
vn -0.1322 0.9685 0.2109
vn -0.2529 0.9499 0.1838
vn -0.2577 0.9244 0.2811
vn -0.0633 0.9109 0.4078
vn 0.1954 0.9547 0.2244
vn 0.1536 0.9342 0.3221
vn 0.2457 0.9507 -0.1892
vn 0.0264 0.9920 -0.1238
vn 0.1324 0.9910 0.0205
vn 0.2534 0.9669 0.0289
vn -0.1794 0.9570 -0.2281
vn -0.2213 0.9751 -0.0124
vn 0.0540 0.7859 -0.6160
vn -0.1599 0.9254 -0.3436
vn 0.2172 0.9254 -0.3106
vn -0.2327 0.9723 0.0212
vn -0.2763 0.9584 -0.0715
vn -0.3512 0.9361 -0.0213
vn -0.3363 0.9217 0.1932
vn -0.0508 0.9628 0.2655
vn -0.1452 0.9448 0.2936
vn 0.2749 0.9593 0.0646
vn 0.0996 0.9938 -0.0485
vn 0.0665 0.9912 0.1145
vn 0.1220 0.9735 0.1933
vn 0.0614 0.9649 -0.2552
vn -0.1145 0.9808 -0.1578
vn 0.4925 0.8048 -0.3313
vn 0.1533 0.9375 -0.3125
vn 0.3472 0.9375 -0.0244
vn 0.1052 0.9723 -0.2087
vn 0.2070 0.9584 -0.1965
vn 0.2040 0.9361 -0.2867
vn 0.0142 0.9217 -0.3876
vn -0.1983 0.9628 -0.1837
vn -0.1722 0.9448 -0.2787
vn -0.2004 0.9593 0.1990
vn -0.0116 0.9938 0.1101
vn -0.1324 0.9912 -0.0042
vn -0.2285 0.9735 0.0011
vn 0.1840 0.9649 0.1872
vn 0.1945 0.9808 -0.0136
vn 0.0203 0.8048 0.5932
vn 0.1839 0.9375 0.2955
vn -0.1631 0.9375 0.3074
vn 0.1081 0.9723 0.2072
vn 0.0389 0.9584 0.2827
vn 0.1138 0.9361 0.3329
vn 0.3066 0.9217 0.2376
vn 0.2649 0.9628 -0.0539
vn 0.3268 0.9448 0.0226
vn -0.0448 0.9593 -0.2788
vn -0.0827 0.9938 -0.0736
vn 0.0806 0.9912 -0.1051
vn 0.1324 0.9735 -0.1863
vn -0.2594 0.9649 0.0403
vn -0.1024 0.9808 0.1659
vn -0.4937 0.8048 -0.3295
vn -0.3473 0.9375 -0.0230
vn -0.1546 0.9375 -0.3118
s off
f 5/1/1 16/2/2 18/3/2 20/4/3
f 17/5/4 5/1/5 20/4/6 19/6/4
f 25/7/7 36/8/8 38/9/8 40/10/9
f 37/11/10 25/7/11 40/10/12 39/12/10
f 45/13/13 56/14/14 58/15/14 60/16/15
f 57/17/16 45/13/17 60/16/18 59/18/16
f 65/19/19 76/20/20 78/21/21 80/22/22
f 77/23/23 65/19/24 80/22/25 79/24/26
f 85/25/27 96/26/28 98/27/29 100/28/30
f 97/29/31 85/25/32 100/28/33 99/30/34
f 105/31/35 116/32/36 118/33/37 120/34/38
f 117/35/39 105/31/40 120/34/41 119/36/42
f 125/37/43 136/38/44 138/39/45 140/40/46
f 137/41/47 125/37/48 140/40/49 139/42/50
f 145/43/51 156/44/52 158/45/53 160/46/54
f 157/47/55 145/43/56 160/46/57 159/48/58
f 165/49/59 176/50/60 178/51/61 180/52/62
f 177/53/63 165/49/64 180/52/65 179/54/66
f 20/4/67 18/3/68 119/55/69 80/22/70
f 19/6/71 20/4/72 80/22/73 118/56/74
f 159/48/75 160/46/76 80/22/77 118/56/78
f 160/46/79 158/45/80 119/55/81 80/22/82
s 1
f 14/57/83 13/58/84 4/59/85 6/60/86
f 15/61/87 14/57/83 6/60/86 3/62/88
f 10/63/89 12/64/90 9/65/91 7/66/92
f 12/64/90 11/67/93 8/68/94 9/65/91
f 5/69/95 2/70/96 11/67/93 12/64/90
f 1/71/97 5/69/95 12/64/90 10/63/89
f 7/66/92 9/65/91 14/57/83 15/61/87
f 9/65/91 8/68/94 13/58/84 14/57/83
f 34/72/98 33/73/99 24/74/100 26/75/101
f 35/76/102 34/72/98 26/75/101 23/77/103
f 30/78/104 32/79/105 29/80/106 27/81/107
f 32/79/105 31/82/108 28/83/109 29/80/106
f 25/84/110 22/85/111 31/82/108 32/79/105
f 21/86/112 25/84/110 32/79/105 30/78/104
f 27/81/107 29/80/106 34/72/98 35/76/102
f 29/80/106 28/83/109 33/73/99 34/72/98
f 54/87/113 53/88/114 44/89/115 46/90/116
f 55/91/117 54/87/113 46/90/116 43/92/118
f 50/93/119 52/94/120 49/95/121 47/96/122
f 52/94/120 51/97/123 48/98/124 49/95/121
f 45/99/125 42/100/126 51/97/123 52/94/120
f 41/101/127 45/99/125 52/94/120 50/93/119
f 47/96/122 49/95/121 54/87/113 55/91/117
f 49/95/121 48/98/124 53/88/114 54/87/113
f 74/102/128 73/103/129 64/104/130 66/105/131
f 75/106/132 74/102/128 66/105/131 63/107/133
f 70/108/134 72/109/135 69/110/136 67/111/137
f 72/109/135 71/112/138 68/113/139 69/110/136
f 65/114/140 62/115/141 71/112/138 72/109/135
f 61/116/142 65/114/140 72/109/135 70/108/134
f 67/111/137 69/110/136 74/102/128 75/106/132
f 69/110/136 68/113/139 73/103/129 74/102/128
f 94/117/143 93/118/144 84/119/145 86/120/146
f 95/121/147 94/117/143 86/120/146 83/122/148
f 90/123/149 92/124/150 89/125/151 87/126/152
f 92/124/150 91/127/153 88/128/154 89/125/151
f 85/129/155 82/130/156 91/127/153 92/124/150
f 81/131/157 85/129/155 92/124/150 90/123/149
f 87/126/152 89/125/151 94/117/143 95/121/147
f 89/125/151 88/128/154 93/118/144 94/117/143
f 114/132/158 113/133/159 104/134/160 106/135/161
f 115/136/162 114/132/158 106/135/161 103/137/163
f 110/138/164 112/139/165 109/140/166 107/141/167
f 112/139/165 111/142/168 108/143/169 109/140/166
f 105/144/170 102/145/171 111/142/168 112/139/165
f 101/146/172 105/144/170 112/139/165 110/138/164
f 107/141/167 109/140/166 114/132/158 115/136/162
f 109/140/166 108/143/169 113/133/159 114/132/158
f 134/147/173 133/148/174 124/149/175 126/150/176
f 135/151/177 134/147/173 126/150/176 123/152/178
f 130/153/179 132/154/180 129/155/181 127/156/182
f 132/154/180 131/157/183 128/158/184 129/155/181
f 125/159/185 122/160/186 131/157/183 132/154/180
f 121/161/187 125/159/185 132/154/180 130/153/179
f 127/156/182 129/155/181 134/147/173 135/151/177
f 129/155/181 128/158/184 133/148/174 134/147/173
f 154/162/188 153/163/189 144/164/190 146/165/191
f 155/166/192 154/162/188 146/165/191 143/167/193
f 150/168/194 152/169/195 149/170/196 147/171/197
f 152/169/195 151/172/198 148/173/199 149/170/196
f 145/174/200 142/175/201 151/172/198 152/169/195
f 141/176/202 145/174/200 152/169/195 150/168/194
f 147/171/197 149/170/196 154/162/188 155/166/192
f 149/170/196 148/173/199 153/163/189 154/162/188
f 174/177/203 173/178/204 164/179/205 166/180/206
f 175/181/207 174/177/203 166/180/206 163/182/208
f 170/183/209 172/184/210 169/185/211 167/186/212
f 172/184/210 171/187/213 168/188/214 169/185/211
f 165/189/215 162/190/216 171/187/213 172/184/210
f 161/191/217 165/189/215 172/184/210 170/183/209
f 167/186/212 169/185/211 174/177/203 175/181/207
f 169/185/211 168/188/214 173/178/204 174/177/203
